<svg class="service-item" xmlns="http://www.w3.org/2000/svg" viewBox="0 0 140 151.18401"><path class="base" d="M4.536 113.388c-6.048-10.474-6.048-65.118 0-75.592C10.583 27.322 57.906 0 70 0c12.095 0 59.417 27.322 65.464 37.796 6.048 10.474 6.048 65.118 0 75.592-6.047 10.474-53.37 37.796-65.464 37.796-12.095 0-59.417-27.322-65.464-37.796z" fill="#fc0"/><path class="icon" d="M48.56 48.85v-8.096c0-4.433-3.606-8.04-8.039-8.04-4.432 0-8.04 3.607-8.04 8.04v8.095c-3.237 2.453-5.36 6.293-5.36 10.664 0 4.37 2.123 8.21 5.36 10.658v40.26c0 4.432 3.608 8.04 8.04 8.04 4.433 0 8.04-3.608 8.04-8.04V70.17c3.237-2.444 5.36-6.287 5.36-10.658 0-4.371-2.123-8.211-5.36-10.664zm-10.719-8.096a2.677 2.677 0 0 1 2.68-2.68 2.677 2.677 0 0 1 2.68 2.68v5.627a13.567 13.567 0 0 0-5.36 0v-5.627zm5.36 69.677a2.677 2.677 0 0 1-2.68 2.68 2.677 2.677 0 0 1-2.68-2.68V72.639c.866.18 1.761.273 2.68.273.92 0 1.815-.094 2.68-.273v37.792zM48.2 61.764c-.043.142-.08.281-.131.423-.255.708-.582 1.378-1.013 1.973-.011.016-.027.027-.038.043a8.11 8.11 0 0 1-1.677 1.702 7.943 7.943 0 0 1-2.142 1.153c-.838.302-1.73.495-2.677.495-.946 0-1.838-.193-2.68-.498a7.937 7.937 0 0 1-2.14-1.152c-.009 0-.017-.011-.028-.022a8.11 8.11 0 0 1-1.65-1.68c-.011-.017-.027-.028-.038-.044a7.984 7.984 0 0 1-1.013-1.973c-.05-.142-.088-.281-.131-.423-.212-.716-.36-1.463-.36-2.249 0-.79.148-1.538.362-2.256.043-.142.08-.281.132-.418a7.837 7.837 0 0 1 1.013-1.978c.01-.016.027-.026.037-.043a8.244 8.244 0 0 1 1.651-1.68l.027-.022a8.18 8.18 0 0 1 2.138-1.15c.842-.3 1.734-.493 2.68-.493.946 0 1.839.193 2.68.494a8.247 8.247 0 0 1 2.168 1.174 8.243 8.243 0 0 1 1.651 1.68c.01.016.027.027.037.043a7.855 7.855 0 0 1 1.142 2.393c.214.718.362 1.466.362 2.256 0 .786-.148 1.533-.362 2.252zm59.32-12.915v-8.095c0-4.433-3.608-8.04-8.04-8.04-4.433 0-8.04 3.607-8.04 8.04v8.095c-3.24 2.453-5.36 6.293-5.36 10.664 0 4.37 2.12 8.21 5.36 10.658v40.26c0 4.432 3.607 8.04 8.04 8.04 4.432 0 8.04-3.608 8.04-8.04V70.17c3.234-2.444 5.36-6.287 5.36-10.658 0-4.371-2.126-8.211-5.36-10.664zm-10.72-8.095a2.677 2.677 0 0 1 2.68-2.68 2.677 2.677 0 0 1 2.68 2.68v5.627a13.528 13.528 0 0 0-5.36 0v-5.627zm5.36 69.677a2.677 2.677 0 0 1-2.68 2.68 2.677 2.677 0 0 1-2.68-2.68V72.639a13.251 13.251 0 0 0 5.36 0v37.792zm4.998-48.667c-.043.142-.083.281-.132.423-.257.708-.581 1.378-1.015 1.973-.011.016-.027.027-.038.043a8.164 8.164 0 0 1-1.648 1.68c-.01.011-.022.017-.027.022a7.983 7.983 0 0 1-2.141 1.153c-.839.302-1.734.495-2.677.495-.949 0-1.839-.193-2.68-.498a7.897 7.897 0 0 1-2.141-1.152c-.011 0-.016-.011-.027-.022a8.056 8.056 0 0 1-1.654-1.68c-.01-.017-.026-.028-.037-.044a7.976 7.976 0 0 1-1.01-1.973c-.054-.142-.089-.281-.132-.423-.211-.716-.359-1.463-.359-2.249 0-.79.148-1.538.362-2.256.043-.142.078-.281.131-.418a8.01 8.01 0 0 1 1.01-1.978c.011-.016.027-.026.038-.043a8.189 8.189 0 0 1 1.654-1.68c.01-.008.016-.016.026-.022a8.205 8.205 0 0 1 2.142-1.152c.838-.298 1.728-.49 2.677-.49.943 0 1.838.192 2.68.493a8.29 8.29 0 0 1 2.14 1.152 8.299 8.299 0 0 1 1.675 1.702c.012.016.028.027.038.043.434.603.759 1.273 1.016 1.978.048.136.088.278.131.418.212.715.36 1.463.36 2.253 0 .786-.148 1.533-.362 2.252zM78.04 81.008V40.754c0-4.433-3.607-8.04-8.04-8.04-4.433 0-8.04 3.607-8.04 8.04v40.254c-3.237 2.45-5.36 6.292-5.36 10.663s2.123 8.212 5.36 10.658v8.102c0 4.432 3.607 8.04 8.04 8.04 4.433 0 8.04-3.608 8.04-8.04v-8.102c3.234-2.444 5.36-6.287 5.36-10.658 0-4.37-2.126-8.21-5.36-10.663zM67.32 40.754a2.677 2.677 0 0 1 2.68-2.68 2.677 2.677 0 0 1 2.68 2.68V78.54a13.818 13.818 0 0 0-2.68-.268c-.92 0-1.814.094-2.68.268V40.754zm5.36 69.677a2.677 2.677 0 0 1-2.68 2.68 2.677 2.677 0 0 1-2.68-2.68v-5.634a13.225 13.225 0 0 0 5.36 0v5.634zm4.998-16.509c-.043.142-.083.282-.131.424-.258.707-.582 1.377-1.016 1.972-.011.017-.027.027-.038.044a8.164 8.164 0 0 1-1.648 1.68c-.01.011-.021.017-.027.021a7.979 7.979 0 0 1-2.14 1.153c-.84.303-1.735.496-2.678.496-.943 0-1.838-.193-2.68-.499a7.94 7.94 0 0 1-2.141-1.152c-.008-.011-.016-.011-.027-.022a8.111 8.111 0 0 1-1.65-1.68c-.012-.017-.028-.027-.038-.044a7.98 7.98 0 0 1-1.013-1.972c-.051-.142-.089-.282-.132-.424-.211-.715-.359-1.463-.359-2.248 0-.79.148-1.538.362-2.257.043-.142.08-.281.131-.418a8.017 8.017 0 0 1 1.013-1.977c.011-.017.027-.027.038-.042a8.24 8.24 0 0 1 1.678-1.703 8.248 8.248 0 0 1 2.14-1.152c.84-.298 1.732-.49 2.678-.49.943 0 1.838.192 2.68.493.774.278 1.493.67 2.141 1.152a8.297 8.297 0 0 1 1.675 1.702c.01.016.027.026.038.044.434.603.758 1.273 1.015 1.977.048.137.089.28.132.418.211.716.359 1.464.359 2.254 0 .785-.148 1.533-.362 2.251z" fill="#b3b3b3"/></svg>