<svg class="service-item" xmlns="http://www.w3.org/2000/svg" viewBox="0 0 140 151.18401"><path class="base" d="M4.536 113.388c-6.048-10.474-6.048-65.118 0-75.592C10.583 27.322 57.906 0 70 0c12.095 0 59.417 27.322 65.464 37.796 6.048 10.474 6.048 65.118 0 75.592-6.047 10.474-53.37 37.796-65.464 37.796-12.095 0-59.417-27.322-65.464-37.796z" fill="#fc0"/><path class="icon" d="M83.139 41.168a6.975 6.975 0 0 0-4.961-2.054c-1.875 0-3.634.73-4.967 2.057l-3.957 3.962a6.966 6.966 0 0 0-2.06 4.964c0 1.322.363 2.588 1.042 3.685L30.138 69.044a8.413 8.413 0 0 0-4.889 6.142 8.422 8.422 0 0 0 2.34 7.54l35.694 35.3a8.368 8.368 0 0 0 5.738 2.462h.22a8.66 8.66 0 0 0 1.711-.174 8.377 8.377 0 0 0 6.109-5.13L92.05 77.65a6.95 6.95 0 0 0 3.836 1.142c1.88 0 3.64-.732 4.961-2.057l3.948-3.95a6.96 6.96 0 0 0 2.071-4.976c0-1.88-.735-3.648-2.054-4.96l-21.674-21.68zm-11.29 71.934a2.808 2.808 0 0 1-2.682 1.777 2.789 2.789 0 0 1-1.913-.82L31.538 78.736a2.795 2.795 0 0 1-.772-2.506 2.802 2.802 0 0 1 1.633-2.048l17.446-6.987c11.754 3.909 23.512.143 35.272 12.689L71.85 113.102zm28.996-44.3l-3.968 3.966c-.547.55-1.436.55-1.984 0l-4.96-4.959-4.019 10.071.334-.85c-8.446-8.432-17.03-9.496-24.775-10.447-2.489-.306-4.902-.626-7.273-1.136l23.826-9.544-4.812-4.812a1.404 1.404 0 0 1 0-1.984l3.967-3.97a1.404 1.404 0 0 1 1.984 0l21.677 21.682a1.39 1.39 0 0 1 .002 1.984zM71.404 89.625c3.867 0 7.015-3.146 7.015-7.015a7.021 7.021 0 0 0-7.015-7.016 7.021 7.021 0 0 0-7.015 7.016c0 3.87 3.148 7.015 7.015 7.015zm0-11.225a4.21 4.21 0 0 1 4.209 4.21 4.209 4.209 0 1 1-4.21-4.21zm36.479-47.703a7.021 7.021 0 0 0-7.015 7.015 7.021 7.021 0 0 0 7.015 7.015 7.021 7.021 0 0 0 7.015-7.015 7.021 7.021 0 0 0-7.015-7.015zm0 11.224a4.21 4.21 0 0 1-4.21-4.209 4.21 4.21 0 0 1 4.21-4.209 4.21 4.21 0 0 1 4.209 4.21 4.21 4.21 0 0 1-4.21 4.208zM47.552 78.4a5.618 5.618 0 0 0 5.612 5.612 5.618 5.618 0 0 0 5.612-5.613 5.618 5.618 0 0 0-5.612-5.612 5.618 5.618 0 0 0-5.612 5.612zm5.612-2.807a2.805 2.805 0 1 1 0 5.613 2.805 2.805 0 1 1 0-5.613zm5.612 19.643a2.807 2.807 0 0 1 5.613 0 2.807 2.807 0 0 1-5.613 0zm44.898-42.091a2.807 2.807 0 0 1 5.612 0 2.807 2.807 0 0 1-5.612 0z" fill="#b3b3b3"/></svg>