<svg class="service-item" xmlns="http://www.w3.org/2000/svg" viewBox="0 0 140 151.18401"><path class="base" d="M4.536 113.388c-6.048-10.474-6.048-65.118 0-75.592C10.583 27.322 57.906 0 70 0c12.095 0 59.417 27.322 65.464 37.796 6.048 10.474 6.048 65.118 0 75.592-6.047 10.474-53.37 37.796-65.464 37.796-12.095 0-59.417-27.322-65.464-37.796z" fill="#fc0"/><path class="icon" d="M103.488 42.042c-4.112-4.108-9.527-6.45-14.865-6.45-4.502 0-8.647 1.67-11.675 4.692l-12.167 12.26c-.038.035-.08.058-.118.095-.02.02-.032.048-.052.065h.005L38.794 78.727a10.059 10.059 0 0 0-2.533 4.262l-5.872 21.27c-.005.058-.388 1.728-.388 2.578 0 4.83 3.923 8.75 8.76 8.75.963 0 2.825-.46 2.893-.47l21.195-5.573a10.05 10.05 0 0 0 4.262-2.54l38.158-38.457c6.94-6.945 6.157-18.585-1.78-26.51zM70.036 95.079c-.205-2.255-.843-4.467-1.798-6.567l23.638-23.635c1.445 4.565.702 9.34-2.465 12.51-.02.02-.045.032-.063.053l.035.033-19.32 19.475c0-.623.03-1.233-.027-1.868zm-3.053-8.847c-.932-1.533-1.992-3.013-3.305-4.323-1.527-1.527-3.28-2.725-5.11-3.73l23.83-23.83c1.87.83 3.663 2.013 5.245 3.595a17.44 17.44 0 0 1 3.203 4.428l-23.863 23.86zm-10.767-9.235c-2.315-.933-4.74-1.465-7.17-1.498l19.257-19.405c2.948-2.875 7.24-3.702 11.468-2.655L56.216 76.997zm-15.798 33.277c-.272.063-1.12.278-1.695.318-2.055-.025-3.722-1.695-3.722-3.75.03-.42.197-1.143.255-1.405l2.632-9.535c2.858-.078 5.933 1.035 8.35 3.457 2.455 2.45 3.61 5.585 3.485 8.478l-9.305 2.437zm11.768-3.09c-.06-3.355-1.425-6.844-4.18-9.595-2.605-2.607-6.015-4.112-9.415-4.247l2.49-9.018c.18-.6.537-1.192.977-1.71 5.015-3.59 12.728-2.53 18.085 2.833 5.668 5.665 6.543 13.965 2.178 18.92-.29.152-.583.297-.898.39l-9.237 2.427zm49.542-42.162l-4.21 4.242c0-.565.068-1.107.015-1.685-.44-4.837-2.695-9.515-6.357-13.172-4.073-4.075-9.473-6.413-14.82-6.428l4.14-4.175c2.072-2.067 4.965-3.212 8.127-3.212 4.023 0 8.155 1.82 11.333 4.987 2.982 2.978 4.76 6.678 5.015 10.42.235 3.493-.918 6.695-3.243 9.023z" fill="#b3b3b3"/></svg>