<svg xmlns="http://www.w3.org/2000/svg" viewBox="0 0 32.619 34.000001"><path d="M5.222 8.716v16.401c0 1.004.412 1.918 1.075 2.58v.01a3.639 3.639 0 0 0 2.58 1.064H9.7a3.645 3.645 0 0 0 2.58-1.073 3.644 3.644 0 0 0 1.075-2.58V9.39c0-2.59 1.055-4.939 2.756-6.64a9.368 9.368 0 0 1 6.641-2.757h.47c2.59 0 4.94 1.055 6.641 2.757a9.369 9.369 0 0 1 2.757 6.64v24.515a6.26 6.26 0 0 1-3.384-1.75v-.01a6.237 6.237 0 0 1-1.837-4.418V9.39c0-1.148-.47-2.192-1.227-2.95a4.164 4.164 0 0 0-2.95-1.227h-.47c-1.148 0-2.193.47-2.95 1.228a4.165 4.165 0 0 0-1.226 2.95v15.726a8.848 8.848 0 0 1-2.604 6.272A8.848 8.848 0 0 1 9.7 33.993h-.823a8.852 8.852 0 0 1-6.267-2.61l-.005.006a8.849 8.849 0 0 1-2.603-6.272V2.603c2.61 0 5.22 3.435 5.22 6.113" fill="#fff" opacity="0.5"/></svg>