<svg xmlns="http://www.w3.org/2000/svg" viewBox="0 0 200 41.626"><defs><clipPath id="a"><path d="M154.022 236.961H297.69V115.5H154.022v121.461z"/></clipPath></defs><g fill="#fff"><path d="M34.934 27.7V5.213h5.213v22.475a6.227 6.227 0 0 1-1.834 4.41l-.01.01a6.247 6.247 0 0 1-3.369 1.747V27.7zM42.522 41.626v-7.863l.02-.185a5.878 5.878 0 0 1 5.192-5.081c1.803-.324 3.559-.993 4.915-2.045 1.43-1.11 2.402-2.699 2.402-4.82l.006-16.42H50.34a2.61 2.61 0 0 0-1.845.76 2.609 2.609 0 0 0-.76 1.846V26.73c-2.761.3-4.94 3.012-5.213 5.784V7.818c0-2.148.877-4.1 2.292-5.516l.01-.01A7.786 7.786 0 0 1 50.34 0h9.911l-.002 2.606-.006 19.026c-.002 3.951-1.788 6.893-4.418 8.932-2.284 1.77-5.214 2.81-8.09 3.2v7.862h-5.213zM198.172 16.095c-.224-.89-.547-1.596-.975-2.128-.43-.534-.995-.96-1.697-1.285a5.224 5.224 0 0 0-2.215-.488c-1.28 0-2.376.406-3.294 1.223-.675.597-1.179 1.487-1.524 2.678h9.705zm-.016 3.486l1.405.738c-.462.897-.994 1.625-1.6 2.178a6.418 6.418 0 0 1-2.04 1.26c-.759.288-1.612.43-2.566.43-2.122 0-3.775-.69-4.968-2.074-1.196-1.38-1.792-2.939-1.792-4.679a6.88 6.88 0 0 1 1.518-4.379c1.282-1.628 2.999-2.445 5.148-2.445 2.214 0 3.985.837 5.306 2.506.937 1.18 1.418 2.65 1.433 4.417h-11.7c.033 1.499.517 2.725 1.446 3.68.934.96 2.09 1.438 3.459 1.438.661 0 1.308-.114 1.932-.341.626-.228 1.159-.529 1.597-.906.44-.377.914-.982 1.422-1.823m-13.857-7.249l-1.073 1.106c-.889-.862-1.762-1.293-2.611-1.293-.541 0-1.004.179-1.39.537-.386.354-.582.771-.582 1.247 0 .418.159.82.476 1.198.317.39.987.845 2.004 1.37 1.234.638 2.075 1.26 2.523 1.852.434.601.653 1.28.653 2.032 0 1.064-.374 1.962-1.121 2.701-.749.735-1.682 1.105-2.804 1.105a4.9 4.9 0 0 1-2.14-.488 4.636 4.636 0 0 1-1.686-1.344l1.047-1.19c.85.958 1.755 1.437 2.71 1.437.666 0 1.236-.214 1.708-.64.467-.428.7-.932.7-1.509 0-.475-.153-.897-.461-1.27-.314-.367-1.012-.826-2.102-1.38-1.168-.6-1.965-1.193-2.383-1.778a3.327 3.327 0 0 1-.635-2.003c0-.98.338-1.79 1.008-2.441.674-.645 1.524-.97 2.551-.97 1.195 0 2.396.572 3.608 1.721m-21.568-1.405h1.658v6.04c0 1.475.08 2.487.24 3.044a3.376 3.376 0 0 0 1.364 1.876c.671.46 1.475.69 2.406.69.93 0 1.717-.222 2.368-.669.646-.451 1.096-1.035 1.341-1.768.166-.499.251-1.555.251-3.173v-6.04h1.707v6.346c0 1.783-.208 3.123-.626 4.025a4.72 4.72 0 0 1-1.88 2.122c-.837.51-1.886.767-3.149.767-1.264 0-2.316-.256-3.161-.767a4.711 4.711 0 0 1-1.893-2.137c-.418-.915-.626-2.291-.626-4.129v-6.227zm-9.612 1.316c-1.385 0-2.572.507-3.567 1.529-.995 1.019-1.49 2.253-1.49 3.7 0 .93.228 1.8.679 2.608a4.812 4.812 0 0 0 1.84 1.864 5.036 5.036 0 0 0 2.538.658c.923 0 1.772-.22 2.54-.658a4.822 4.822 0 0 0 1.84-1.864c.45-.809.678-1.679.678-2.608 0-1.447-.499-2.681-1.5-3.7-.994-1.022-2.18-1.529-3.558-1.529m.008-1.633c1.995 0 3.652.719 4.966 2.161 1.194 1.313 1.79 2.868 1.79 4.663 0 1.804-.629 3.381-1.892 4.73-1.26 1.348-2.885 2.023-4.864 2.023-1.99 0-3.619-.675-4.879-2.023-1.264-1.349-1.893-2.926-1.893-4.73 0-1.786.598-3.338 1.792-4.651 1.312-1.45 2.973-2.173 4.98-2.173m-21.004-4.68h1.66v7.333c.673-.886 1.422-1.553 2.23-1.99a5.407 5.407 0 0 1 2.636-.663c.97 0 1.832.244 2.584.735a4.426 4.426 0 0 1 1.666 1.979c.356.829.535 2.124.535 3.892v6.654h-1.657v-6.167c0-1.487-.061-2.482-.178-2.981-.208-.855-.585-1.496-1.13-1.93-.544-.43-1.259-.647-2.145-.647-1.011 0-1.917.334-2.718 1a4.674 4.674 0 0 0-1.585 2.47c-.158.633-.238 1.804-.238 3.514v4.74h-1.66V5.93zm-4.894 10.165c-.224-.89-.547-1.596-.975-2.128-.43-.534-.994-.96-1.697-1.285a5.23 5.23 0 0 0-2.215-.488c-1.28 0-2.376.406-3.294 1.223-.675.597-1.178 1.487-1.524 2.678h9.705zm-.016 3.486l1.405.738c-.463.897-.994 1.625-1.6 2.178a6.418 6.418 0 0 1-2.04 1.26c-.76.288-1.611.43-2.567.43-2.12 0-3.774-.69-4.968-2.074-1.194-1.38-1.792-2.939-1.792-4.679 0-1.635.509-3.098 1.52-4.379 1.28-1.628 2.998-2.445 5.147-2.445 2.215 0 3.985.837 5.306 2.506.938 1.18 1.418 2.65 1.433 4.417h-11.7c.033 1.499.516 2.725 1.447 3.68.934.96 2.089 1.438 3.456 1.438.662 0 1.31-.114 1.935-.341.626-.228 1.158-.529 1.597-.906.439-.377.913-.982 1.421-1.823m-18.894-8.654h1.706v1.894c.508-.749 1.045-1.3 1.61-1.667.563-.36 1.153-.544 1.762-.544.463 0 .954.146 1.479.44l-.87 1.395c-.348-.149-.642-.226-.881-.226-.556 0-1.093.226-1.609.682-.515.455-.91 1.167-1.182 2.126-.208.734-.31 2.225-.31 4.467v4.376h-1.705V10.927zm-9.795 1.292c-.926 0-1.783.226-2.563.682a4.966 4.966 0 0 0-1.869 1.91 5.223 5.223 0 0 0 .004 5.212 5.066 5.066 0 0 0 1.882 1.934 4.924 4.924 0 0 0 2.535.694c.905 0 1.77-.228 2.583-.687a4.78 4.78 0 0 0 1.88-1.86c.44-.78.658-1.662.658-2.641 0-1.49-.491-2.738-1.478-3.742-.982-1.003-2.194-1.502-3.632-1.502m6.67-1.292V23.87h-1.657v-2.226c-.698.848-1.478 1.486-2.347 1.91-.866.422-1.817.633-2.845.633-1.828 0-3.392-.663-4.688-1.987-1.296-1.327-1.942-2.937-1.942-4.839 0-1.855.654-3.448 1.962-4.768 1.304-1.32 2.877-1.983 4.717-1.983 1.06 0 2.02.222 2.88.67.857.447 1.613 1.122 2.263 2.027v-2.38h1.657zm-34.904 0h1.719l3.948 9.384 4.132-9.384h.308l4.14 9.384 4.03-9.384h1.71L84.683 23.87h-.32l-4.115-9.262-4.128 9.262h-.333L70.29 10.927z" fill-rule="evenodd"/><g clip-path="url(#a)" opacity=".5" transform="matrix(.27944 0 0 -.27944 -43.04 66.217)"><path d="M172.673 205.797v-58.59c0-3.588 1.47-6.851 3.837-9.22v-.035a12.999 12.999 0 0 1 9.22-3.8h2.94c3.586 0 6.851 1.47 9.218 3.836 2.367 2.368 3.836 5.63 3.836 9.219v56.183c0 9.252 3.77 17.645 9.848 23.723 6.078 6.08 14.473 9.848 23.725 9.848h1.68c9.25 0 17.644-3.768 23.723-9.848 6.078-6.078 9.848-14.471 9.848-23.723V115.812a22.36 22.36 0 0 0-12.088 6.252v.035c-4.052 4.052-6.563 9.64-6.563 15.783v65.508c0 4.102-1.679 7.833-4.384 10.537-2.704 2.704-6.435 4.384-10.537 4.384h-1.679c-4.104 0-7.834-1.68-10.539-4.384-2.703-2.704-4.382-6.435-4.382-10.537v-56.183c0-8.735-3.56-16.665-9.303-22.405-5.739-5.741-13.669-9.302-22.404-9.302h-2.94c-8.707 0-16.63 3.568-22.388 9.32l-.018-.018c-5.74 5.74-9.3 13.67-9.3 22.405v80.428c9.324 0 18.65-12.27 18.65-21.838m106.364 31.143h18.653v-18.63h-18.653v18.63z" fill-rule="evenodd"/></g></g></svg>