<?xml version="1.0" encoding="UTF-8" standalone="no"?>
<!-- Created with Inkscape (http://www.inkscape.org/) -->

<svg
   xmlns:dc="http://purl.org/dc/elements/1.1/"
   xmlns:cc="http://creativecommons.org/ns#"
   xmlns:rdf="http://www.w3.org/1999/02/22-rdf-syntax-ns#"
   xmlns:svg="http://www.w3.org/2000/svg"
   xmlns="http://www.w3.org/2000/svg"
   xmlns:sodipodi="http://sodipodi.sourceforge.net/DTD/sodipodi-0.dtd"
   xmlns:inkscape="http://www.inkscape.org/namespaces/inkscape"
   width="213.33333"
   height="213.33333"
   viewBox="0 0 200 200"
   id="svg2"
   version="1.1"
   inkscape:version="0.92.1 unknown"
   sodipodi:docname="post-thumb.svg">
  <defs
     id="defs4" />
  <sodipodi:namedview
     id="base"
     pagecolor="#ffffff"
     bordercolor="#666666"
     borderopacity="1.0"
     inkscape:pageopacity="0.0"
     inkscape:pageshadow="2"
     inkscape:zoom="0.98994949"
     inkscape:cx="34.861486"
     inkscape:cy="78.472016"
     inkscape:document-units="px"
     inkscape:current-layer="layer1"
     showgrid="false"
     units="px"
     inkscape:snap-page="true"
     inkscape:window-width="1366"
     inkscape:window-height="710"
     inkscape:window-x="0"
     inkscape:window-y="30"
     inkscape:window-maximized="1" />
  <metadata
     id="metadata7">
    <rdf:RDF>
      <cc:Work
         rdf:about="">
        <dc:format>image/svg+xml</dc:format>
        <dc:type
           rdf:resource="http://purl.org/dc/dcmitype/StillImage" />
        <dc:title />
      </cc:Work>
    </rdf:RDF>
  </metadata>
  <g
     inkscape:label="Layer 1"
     inkscape:groupmode="layer"
     id="layer1"
     transform="translate(0,-852.36216)">
    <rect
       style="opacity:1;fill:#e6e6e6;fill-opacity:1;stroke:none;stroke-width:1;stroke-linecap:round;stroke-linejoin:round;stroke-miterlimit:4;stroke-dasharray:none;stroke-dashoffset:0;stroke-opacity:1"
       id="rect4136"
       width="200"
       height="200"
       x="0"
       y="852.36218"
       rx="0"
       ry="0" />
    <path
       id="path814"
       d="m 76.864693,912.70164 h 46.270627 q 4.10488,0 7.01001,2.90512 2.90512,2.90517 2.90512,7.01001 v 59.49081 q 0,4.10489 -2.90512,7.01001 -2.90513,2.90513 -7.01001,2.90513 H 76.864694 q -4.10485,0 -7.01001,-2.90513 -2.90513,-2.90512 -2.90513,-7.01001 v -59.49081 q 0,-4.10485 2.90513,-7.01001 2.90516,-2.90512 7.010009,-2.90512 z m 9.91513,56.18576 h 26.440357 q 1.36831,0 2.33666,0.96839 0.96839,0.96839 0.96839,2.33666 0,1.36831 -0.96839,2.33667 -0.96835,0.96838 -2.33666,0.96838 H 86.779823 q -1.36827,0 -2.33666,-0.96838 -0.96838,-0.96835 -0.96838,-2.33667 0,-1.36827 0.96838,-2.33666 0.96839,-0.96839 2.33666,-0.96839 z m 0,-13.22018 h 26.440357 q 1.36831,0 2.33666,0.96839 0.96839,0.96839 0.96839,2.33666 0,1.36831 -0.96839,2.33667 -0.96835,0.96838 -2.33666,0.96838 H 86.779823 q -1.36827,0 -2.33666,-0.96838 -0.96838,-0.96835 -0.96838,-2.33667 0,-1.36827 0.96838,-2.33666 0.96839,-0.96839 2.33666,-0.96839 z M 123.13532,919.31173 H 76.864694 q -1.36828,0 -2.33666,0.96839 -0.96839,0.96838 -0.96839,2.33665 v 59.49081 q 0,1.36831 0.96839,2.33666 0.96838,0.96839 2.33666,0.96839 h 46.270626 q 1.3683,0 2.33665,-0.96839 0.96839,-0.96835 0.96839,-2.33666 v -59.49081 q 0,-1.36827 -0.96839,-2.33665 -0.96835,-0.96839 -2.33665,-0.96839 z m -36.355497,23.13531 h 26.440357 q 1.36831,0 2.33666,0.96839 0.96839,0.96839 0.96839,2.33666 0,1.36831 -0.96839,2.33666 -0.96835,0.96839 -2.33666,0.96839 H 86.779823 q -1.36827,0 -2.33666,-0.96839 -0.96838,-0.96835 -0.96838,-2.33666 0,-1.36827 0.96838,-2.33666 0.96839,-0.96839 2.33666,-0.96839 z m 0,-13.22018 H 100 q 1.36831,0 2.33666,0.96839 0.96839,0.96839 0.96839,2.33666 0,1.3683 -0.96839,2.33666 -0.96835,0.96838 -2.33666,0.96838 H 86.779823 q -1.36827,0 -2.33666,-0.96838 -0.96838,-0.96836 -0.96838,-2.33666 0,-1.36827 0.96838,-2.33666 0.96839,-0.96839 2.33666,-0.96839 z"
       inkscape:connector-curvature="0"
       style="stroke-width:1;font-variant-east_asian:normal;opacity:1;vector-effect:none;fill:#4d4d4d;fill-opacity:1;stroke-linecap:butt;stroke-linejoin:miter;stroke-miterlimit:4;stroke-dasharray:none;stroke-dashoffset:0;stroke-opacity:1" />
  </g>
</svg>
