<?xml version="1.0" encoding="UTF-8" standalone="no"?>
<!-- Created with Inkscape (http://www.inkscape.org/) -->

<svg
   xmlns:dc="http://purl.org/dc/elements/1.1/"
   xmlns:cc="http://creativecommons.org/ns#"
   xmlns:rdf="http://www.w3.org/1999/02/22-rdf-syntax-ns#"
   xmlns:svg="http://www.w3.org/2000/svg"
   xmlns="http://www.w3.org/2000/svg"
   xmlns:xlink="http://www.w3.org/1999/xlink"
   xmlns:sodipodi="http://sodipodi.sourceforge.net/DTD/sodipodi-0.dtd"
   xmlns:inkscape="http://www.inkscape.org/namespaces/inkscape"
   width="793"
   height="200.58568"
   viewBox="0 0 793.00001 200.58567"
   id="svg2"
   version="1.1"
   inkscape:version="0.91 r"
   sodipodi:docname="works-background.svg">
  <defs
     id="defs4">
    <linearGradient
       inkscape:collect="always"
       id="linearGradient4256">
      <stop
         style="stop-color:#ffe680;stop-opacity:1;"
         offset="0"
         id="stop4258" />
      <stop
         id="stop4264"
         offset="0.50724638"
         style="stop-color:#c8ab37;stop-opacity:1" />
      <stop
         style="stop-color:#ffe680;stop-opacity:1"
         offset="1"
         id="stop4260" />
    </linearGradient>
    <linearGradient
       inkscape:collect="always"
       xlink:href="#linearGradient4256"
       id="linearGradient4262"
       x1="262.63965"
       y1="993.77338"
       x2="820.2439"
       y2="993.77338"
       gradientUnits="userSpaceOnUse"
       gradientTransform="matrix(0.75954783,0,0,0.05217608,127.28865,932.80427)" />
  </defs>
  <sodipodi:namedview
     id="base"
     pagecolor="#ffffff"
     bordercolor="#666666"
     borderopacity="1.0"
     inkscape:pageopacity="0.0"
     inkscape:pageshadow="2"
     inkscape:zoom="0.7"
     inkscape:cx="558.75736"
     inkscape:cy="160.18085"
     inkscape:document-units="px"
     inkscape:current-layer="g4350"
     showgrid="false"
     inkscape:snap-page="true"
     inkscape:snap-bbox="true"
     inkscape:bbox-paths="true"
     inkscape:bbox-nodes="true"
     inkscape:snap-bbox-edge-midpoints="true"
     inkscape:snap-global="false"
     fit-margin-top="0"
     fit-margin-left="0"
     fit-margin-right="0"
     fit-margin-bottom="0"
     inkscape:window-width="1366"
     inkscape:window-height="712"
     inkscape:window-x="0"
     inkscape:window-y="30"
     inkscape:window-maximized="1"
     inkscape:object-nodes="true"
     inkscape:snap-intersection-paths="true"
     inkscape:object-paths="true"
     units="px" />
  <metadata
     id="metadata7">
    <rdf:RDF>
      <cc:Work
         rdf:about="">
        <dc:format>image/svg+xml</dc:format>
        <dc:type
           rdf:resource="http://purl.org/dc/dcmitype/StillImage" />
        <dc:title />
      </cc:Work>
    </rdf:RDF>
  </metadata>
  <g
     inkscape:label="Layer 1"
     inkscape:groupmode="layer"
     id="layer1"
     transform="translate(3.1597015,-814.47706)">
    <g
       id="g4350"
       transform="matrix(0.99209403,0,0,0.99209403,-128.68082,-28.979519)">
      <rect
         ry="0"
         rx="0"
         y="980.70593"
         x="126.52139"
         height="7.0065036"
         width="799.3194"
         id="rect4136"
         style="opacity:1;fill:url(#linearGradient4262);fill-opacity:1;stroke:none;stroke-width:1;stroke-linecap:round;stroke-linejoin:miter;stroke-miterlimit:4;stroke-dasharray:none" />
      <g
         transform="translate(-0.75564646,33.485049)"
         id="g4230">
        <rect
           style="opacity:1;fill:#aa0000;fill-opacity:1;stroke:none;stroke-width:5;stroke-linecap:round;stroke-linejoin:round;stroke-miterlimit:4;stroke-dasharray:none;stroke-dashoffset:0;stroke-opacity:1"
           id="rect4928"
           width="8.8580847"
           height="67.675766"
           x="253.41963"
           y="1060.1364"
           rx="0.88580799"
           ry="0.88580799"
           transform="matrix(0.90546714,-0.42441638,0.42441638,0.90546714,0,0)" />
        <rect
           transform="matrix(0.98228581,-0.18738889,0.15441737,0.98800571,0,0)"
           ry="0.88567066"
           rx="0.88402301"
           y="962.88409"
           x="563.96649"
           height="67.66127"
           width="4.6606646"
           id="rect4930"
           style="opacity:1;fill:#916f6f;fill-opacity:1;stroke:none;stroke-width:5;stroke-linecap:round;stroke-linejoin:round;stroke-miterlimit:4;stroke-dasharray:none;stroke-dashoffset:0;stroke-opacity:1" />
        <rect
           style="opacity:1;fill:#916f6f;fill-opacity:1;stroke:none;stroke-width:5;stroke-linecap:round;stroke-linejoin:round;stroke-miterlimit:4;stroke-dasharray:none;stroke-dashoffset:0;stroke-opacity:1"
           id="rect4932"
           width="4.6606646"
           height="67.66127"
           x="866.26794"
           y="733.74243"
           rx="0.88402301"
           ry="0.88567066"
           transform="matrix(0.98880875,0.14918867,-0.18218999,0.98326335,0,0)" />
        <rect
           style="opacity:1;fill:#c8b7b7;fill-opacity:1;stroke:none;stroke-width:5;stroke-linecap:round;stroke-linejoin:round;stroke-miterlimit:4;stroke-dasharray:none;stroke-dashoffset:0;stroke-opacity:1"
           id="rect4936"
           width="17.716169"
           height="76.533852"
           x="1010.9838"
           y="472.35736"
           rx="0.88402337"
           ry="0.88567048"
           transform="matrix(0.92216304,0.38680141,-0.38680142,0.92216303,0,0)" />
        <rect
           transform="matrix(0.9620153,-0.27299554,0.24065432,0.97061089,0,0)"
           ry="0.88567066"
           rx="0.88402301"
           y="1011.6454"
           x="472.88019"
           height="67.661263"
           width="4.6606646"
           id="rect4934"
           style="opacity:1;fill:#483737;fill-opacity:1;stroke:none;stroke-width:5;stroke-linecap:round;stroke-linejoin:round;stroke-miterlimit:4;stroke-dasharray:none;stroke-dashoffset:0;stroke-opacity:1" />
        <path
           style="fill:#ffcc00;fill-rule:evenodd;stroke:none;stroke-width:1px;stroke-linecap:butt;stroke-linejoin:miter;stroke-opacity:1"
           d="m 694.76236,947.20394 -8.50379,-70.86469 68.03013,-2.83458 -7.79512,73.71619 z"
           id="path4902"
           inkscape:connector-curvature="0"
           sodipodi:nodetypes="ccccc" />
        <path
           style="fill:#806600;fill-rule:evenodd;stroke:none;stroke-width:1px;stroke-linecap:butt;stroke-linejoin:miter;stroke-opacity:1"
           d="m 745.53141,884.65592 -6.51377,0.13147 0,4.87778 5.96845,0 0.54532,-5.00932 z m -10.52287,0.21376 -5.01205,0.10144 0,4.69418 5.01205,0 0,-4.79557 z m -9.02117,0.18358 -5.5108,0.11239 0,4.49962 5.5108,0 0,-4.61198 z m -9.5199,0.19458 -4.51059,0.0932 0,4.32424 4.51059,0 0,-4.4174 z m -8.51694,0.17263 -3.50763,0.0713 0,4.17353 3.50763,0 0,-4.24477 z m -7.51674,0.15347 -4.0091,0.0822 0.50696,4.00911 3.50214,0 0,-4.09131 z m -2.99517,8.10042 0.56725,4.51057 2.42792,0 0,-4.51057 -2.99517,0 z m 7.00428,0 0,4.51057 3.50763,0 0,-4.51057 -3.50763,0 z m 7.51398,0 0,4.51057 4.51059,0 0,-4.51057 -4.51059,0 z m 8.51969,0 0,4.51057 5.5108,0 0,-4.51057 -5.5108,0 z m 9.51992,0 0,4.51057 5.01205,0 0,-4.51057 -5.01205,0 z m 9.02115,0 0,4.51057 5.03947,0 0.49052,-4.51057 -5.52999,0 z m -40.50482,8.51968 0.63303,5.00932 1.28794,0 0,-5.00932 -1.92097,0 z m 5.93008,0 0,5.00932 3.50763,0 0,-5.00932 -3.50763,0 z m 7.51398,0 0,5.00932 4.51059,0 0,-5.00932 -4.51059,0 z m 8.51969,0 0,5.00932 5.5108,0 0,-5.00932 -5.5108,0 z m 9.51992,0 0,5.00932 5.01205,0 0,-5.00932 -5.01205,0 z m 9.02115,0 0,5.00932 4.05843,0 0.54533,-5.00932 -4.60376,0 z m -39.36484,9.01843 0.69605,5.5108 0.0849,0 0,-5.5108 -0.78099,0 z m 4.7901,0 0,5.5108 3.50763,0 0,-5.5108 -3.50763,0 z m 7.51398,0 0,5.5108 4.51059,0 0,-5.5108 -4.51059,0 z m 8.51969,0 0,5.5108 5.5108,0 0,-5.5108 -5.5108,0 z m 9.51992,0 0,5.5108 5.01205,0 0,-5.5108 -5.01205,0 z m 9.02115,0 0,5.5108 3.01986,0 0.60012,-5.5108 -3.61998,0 z m -34.57474,9.5199 0,5.51355 3.50763,0 0,-5.51355 -3.50763,0 z m 7.51398,0 0,5.51355 4.51059,0 0,-5.51355 -4.51059,0 z m 8.51969,0 0,5.51355 5.5108,0 0,-5.51355 -5.5108,0 z m 9.51992,0 0,5.51355 5.01205,0 0,-5.51355 -5.01205,0 z m 9.02115,0 0,5.51355 1.98401,0 0.60013,-5.51355 -2.58414,0 z m -34.57474,9.52265 0,3.90772 c 1.05591,0.39364 2.25249,0.70718 3.50763,0.98104 l 0,-4.88876 -3.50763,0 z m 7.51398,0 0,5.56288 c 1.46036,0.17865 2.96927,0.30648 4.51059,0.39186 l 0,-5.95474 -4.51059,0 z m 8.51969,0 0,6.08902 c 1.88515,0.0253 3.71253,-0.003 5.5108,-0.0575 l 0,-6.03147 -5.5108,0 z m 9.51992,0 0,5.86157 c 1.86903,-0.10522 3.55743,-0.22329 5.01205,-0.34802 l 0,-5.51355 -5.01205,0 z m 9.02115,0 0,5.11345 c 0.16524,-0.0198 1.00022,-0.1041 1.00022,-0.1041 l 0.54534,-5.00932 -1.54556,0 z"
           id="path4904"
           inkscape:connector-curvature="0" />
      </g>
      <g
         transform="translate(62.629458,33.603679)"
         id="g4214">
        <path
           style="fill:#ececec;fill-rule:evenodd;stroke:none;stroke-width:1px;stroke-linecap:butt;stroke-linejoin:miter;stroke-opacity:1"
           d="m 244.28571,939.50506 0.35715,-6.42857 116.78572,-65 292.14285,3.57143 2.85714,3.57142 -124.28571,67.14286 z"
           id="path4188"
           inkscape:connector-curvature="0"
           sodipodi:nodetypes="ccccccc" />
        <rect
           style="opacity:1;fill:#b3b3b3;fill-opacity:1;stroke:none;stroke-width:1;stroke-linecap:round;stroke-linejoin:miter;stroke-miterlimit:4;stroke-dasharray:none"
           id="rect4182"
           width="291.42856"
           height="136.13469"
           x="1998.7428"
           y="1853.4088"
           transform="matrix(1,0,-0.88147997,0.47222141,0,0)" />
        <rect
           transform="matrix(1,0,-0.88147997,0.47222141,0,0)"
           y="1864.1046"
           x="2021.6395"
           height="114.74319"
           width="245.63498"
           id="rect4186"
           style="opacity:1;fill:#4d4d4d;fill-opacity:1;stroke:none;stroke-width:1;stroke-linecap:round;stroke-linejoin:miter;stroke-miterlimit:4;stroke-dasharray:none" />
        <path
           inkscape:connector-curvature="0"
           style="opacity:1;fill:#666666;fill-opacity:1;stroke:none;stroke-width:1;stroke-linecap:round;stroke-linejoin:miter;stroke-miterlimit:4;stroke-dasharray:none"
           d="m 369.4827,885.08496 -92.1582,49.36914 243.52148,0 -151.36328,-49.36914 z"
           id="path4195" />
        <path
           style="opacity:1;fill:#ececec;fill-opacity:1;stroke:none;stroke-width:1;stroke-linecap:round;stroke-linejoin:miter;stroke-miterlimit:4;stroke-dasharray:none"
           d="m 244.28572,939.50507 415,0 -25.71429,7.59716 -389.28571,0 z"
           id="rect4209"
           inkscape:connector-curvature="0"
           sodipodi:nodetypes="ccccc" />
        <path
           sodipodi:nodetypes="ccccc"
           inkscape:connector-curvature="0"
           id="path4212"
           d="m 368.11713,939.50507 291.16859,0 -25.71429,7.59716 -288.68781,0 z"
           style="opacity:1;fill:#999999;fill-opacity:1;stroke:none;stroke-width:1;stroke-linecap:round;stroke-linejoin:miter;stroke-miterlimit:4;stroke-dasharray:none" />
      </g>
      <rect
         style="opacity:1;fill:#4d4d4d;fill-opacity:1;stroke:none;stroke-width:1;stroke-linecap:round;stroke-linejoin:miter;stroke-miterlimit:4;stroke-dasharray:none"
         id="rect4266"
         width="799.3194"
         height="16.097876"
         x="126.52139"
         y="987.71246"
         rx="0"
         ry="0" />
      <rect
         transform="scale(1,-1)"
         ry="0"
         rx="0"
         y="-1052.3622"
         x="145.71429"
         height="48.551888"
         width="760.93359"
         id="rect4270"
         style="opacity:1;fill:#1a1a1a;fill-opacity:1;stroke:none;stroke-width:1;stroke-linecap:round;stroke-linejoin:miter;stroke-miterlimit:4;stroke-dasharray:none" />
      <path
         sodipodi:nodetypes="ccccc"
         inkscape:connector-curvature="0"
         id="rect4272"
         d="m 479.31737,975.65515 309.10669,2.67857 0,2.37219 -309.10669,0 z"
         style="opacity:1;fill:#b3b3b3;fill-opacity:1;stroke:none;stroke-width:1;stroke-linecap:round;stroke-linejoin:miter;stroke-miterlimit:4;stroke-dasharray:none" />
      <rect
         y="975.59058"
         x="363.14984"
         height="4.2931485"
         width="14.142136"
         id="rect4279"
         style="opacity:1;fill:#000000;fill-opacity:1;stroke:none;stroke-width:2;stroke-linecap:round;stroke-linejoin:miter;stroke-miterlimit:4;stroke-dasharray:none" />
      <g
         transform="translate(39.39595,1.2008552)"
         id="g4307">
        <g
           id="g4331"
           transform="matrix(1.5525089,0.18740418,-0.18740418,1.5525089,-108.04771,-36.377698)">
          <g
             id="g4301"
             transform="matrix(0.93685315,0.349723,-0.349723,0.93685315,201.1003,-75.533805)">
            <path
               inkscape:connector-curvature="0"
               id="path4319"
               d="m 313.21429,537.80863 c 0,0 -2.23215,-4.375 0.35714,-5.26786 2.58929,-0.89285 3.83929,3.75 3.83929,3.75 z"
               style="fill:#333333;fill-opacity:1;fill-rule:evenodd;stroke:none;stroke-width:1px;stroke-linecap:butt;stroke-linejoin:miter;stroke-opacity:1" />
            <path
               sodipodi:nodetypes="cccsscccc"
               id="path4329"
               d="m 329.5,563.6582 c -0.13555,-0.0399 -0.11665,-0.0527 -0.25977,-0.0898 -0.60267,-0.15625 -1.25948,-0.28013 -1.8789,-0.29688 -0.61942,-0.0167 -1.20006,0.072 -1.64649,0.33985 -0.89286,0.53571 -1.69698,1.47377 -2.27734,2.27734 -0.20318,0.28133 -0.18541,0.29012 -0.32812,0.51563 2.39584,7.14061 9.58294,28.51668 17.22802,32.20537 -0.3247,-9.67641 -4.44032,-20.23503 -10.8374,-34.95147 z"
               style="fill:#1a1a1a;fill-rule:evenodd;stroke:none;stroke-width:1px;stroke-linecap:butt;stroke-linejoin:miter;stroke-opacity:1"
               inkscape:connector-curvature="0" />
            <path
               sodipodi:nodetypes="cccsscccccc"
               id="path4267"
               d="m 316.37695,535.89648 c -1.91276,0.0748 -3.83233,1.1903 -3.35547,3.18164 1.25017,2.53713 7.78037,20.84262 10.0879,27.32618 0.14271,-0.22551 0.12494,-0.2343 0.32812,-0.51563 0.58036,-0.80357 1.38448,-1.74163 2.27734,-2.27734 0.44643,-0.26786 1.02707,-0.35659 1.64649,-0.33985 0.61942,0.0168 1.27623,0.14063 1.8789,0.29688 0.14312,0.0371 0.12422,0.0499 0.25977,0.0898 -4.04029,-8.3891 -7.31839,-15.62608 -11.30273,-27.48437 -0.54704,-0.2128 -1.18273,-0.30228 -1.82032,-0.27735 z"
               style="fill:#ececec;fill-rule:evenodd;stroke:none;stroke-width:1px;stroke-linecap:butt;stroke-linejoin:miter;stroke-opacity:1;fill-opacity:1"
               inkscape:connector-curvature="0" />
            <path
               id="path4321"
               d="m 317.11328,537.26953 c -1.6978,0.0582 -3.06807,1.12434 -3.79101,2.53125 0.20401,0.47348 0.41897,0.98128 0.75,1.83203 0.43074,-0.52545 1.15021,-1.1651 2.35546,-1.68164 1.29445,-0.55476 2.15173,-0.65174 2.6836,-0.61914 -0.19823,-0.62901 -0.38446,-1.25167 -0.5586,-1.86719 -0.49815,-0.14329 -0.98168,-0.211 -1.43945,-0.19531 z"
               style="fill:#008080;fill-rule:evenodd;stroke:none;stroke-width:1px;stroke-linecap:butt;stroke-linejoin:miter;stroke-opacity:1"
               inkscape:connector-curvature="0" />
          </g>
        </g>
        <path
           style="opacity:1;fill:#1a1a1a;fill-opacity:1;stroke:none;stroke-width:2;stroke-linecap:round;stroke-linejoin:miter;stroke-miterlimit:4;stroke-dasharray:none"
           d="m 249.54377,950.27836 14.02567,0 0,29.22671 -19.08684,0 z"
           id="rect4281"
           inkscape:connector-curvature="0"
           sodipodi:nodetypes="ccccc" />
        <path
           sodipodi:nodetypes="ccccc"
           inkscape:connector-curvature="0"
           id="path4284"
           d="m 274.79263,950.27836 -14.02566,0 0,29.22671 19.08683,0 z"
           style="opacity:1;fill:#333333;fill-opacity:1;stroke:none;stroke-width:2;stroke-linecap:round;stroke-linejoin:miter;stroke-miterlimit:4;stroke-dasharray:none" />
      </g>
      <path
         style="fill:none;fill-rule:evenodd;stroke:#000000;stroke-width:2.01593804;stroke-linecap:butt;stroke-linejoin:miter;stroke-miterlimit:4;stroke-dasharray:none;stroke-opacity:1"
         d="m 479.31737,977.84449 c 0,0 -26.28602,-2.87992 -26.28602,10.43968 l 0,64.07803"
         id="path4169"
         inkscape:connector-curvature="0"
         sodipodi:nodetypes="csc" />
      <path
         style="fill:none;fill-rule:evenodd;stroke:#000000;stroke-width:2.01593794;stroke-linecap:butt;stroke-linejoin:miter;stroke-opacity:1;stroke-miterlimit:4;stroke-dasharray:none"
         d="m 369.15393,977.48449 c 0,0 -20.15938,-1.07995 -20.15938,6.8398 l 0,68.03791"
         id="path4171"
         inkscape:connector-curvature="0"
         sodipodi:nodetypes="csc" />
    </g>
  </g>
</svg>
